<svg width="24" height="25" viewBox="0 0 24 25" fill="none" xmlns="http://www.w3.org/2000/svg">
<g id="Icon / Facebook">
<path id="Vector" d="M16.5 6.76953H13.5C12.9477 6.76953 12.5 7.21725 12.5 7.76953V10.7695H16.5C16.6137 10.767 16.7216 10.8199 16.7892 10.9114C16.8568 11.0029 16.8758 11.1215 16.84 11.2295L16.1 13.4295C16.0318 13.6314 15.8431 13.7679 15.63 13.7695H12.5V21.2695C12.5 21.5456 12.2761 21.7695 12 21.7695H9.5C9.22386 21.7695 9 21.5456 9 21.2695V13.7695H7.5C7.22386 13.7695 7 13.5456 7 13.2695V11.2695C7 10.9934 7.22386 10.7695 7.5 10.7695H9V7.76953C9 5.56039 10.7909 3.76953 13 3.76953H16.5C16.7761 3.76953 17 3.99339 17 4.26953V6.26953C17 6.54567 16.7761 6.76953 16.5 6.76953Z" fill="#D9EFDE"/>
</g>
</svg>
