<svg width="24" height="25" viewBox="0 0 24 25" fill="none" xmlns="http://www.w3.org/2000/svg">
<g id="Icon / LinkedIn">
<path id="Vector" fill-rule="evenodd" clip-rule="evenodd" d="M5 3.76953H19C20.1046 3.76953 21 4.66496 21 5.76953V19.7695C21 20.8741 20.1046 21.7695 19 21.7695H5C3.89543 21.7695 3 20.8741 3 19.7695V5.76953C3 4.66496 3.89543 3.76953 5 3.76953ZM8 18.7695C8.27614 18.7695 8.5 18.5456 8.5 18.2695V11.2695C8.5 10.9934 8.27614 10.7695 8 10.7695H6.5C6.22386 10.7695 6 10.9934 6 11.2695V18.2695C6 18.5456 6.22386 18.7695 6.5 18.7695H8ZM7.25 9.76953C6.42157 9.76953 5.75 9.09796 5.75 8.26953C5.75 7.4411 6.42157 6.76953 7.25 6.76953C8.07843 6.76953 8.75 7.4411 8.75 8.26953C8.75 9.09796 8.07843 9.76953 7.25 9.76953ZM17.5 18.7695C17.7761 18.7695 18 18.5456 18 18.2695V13.6695C18.0325 12.0803 16.8576 10.7241 15.28 10.5295C14.177 10.4288 13.1083 10.9439 12.5 11.8695V11.2695C12.5 10.9934 12.2761 10.7695 12 10.7695H10.5C10.2239 10.7695 10 10.9934 10 11.2695V18.2695C10 18.5456 10.2239 18.7695 10.5 18.7695H12C12.2761 18.7695 12.5 18.5456 12.5 18.2695V14.5195C12.5 13.6911 13.1716 13.0195 14 13.0195C14.8284 13.0195 15.5 13.6911 15.5 14.5195V18.2695C15.5 18.5456 15.7239 18.7695 16 18.7695H17.5Z" fill="#D9EFDE"/>
</g>
</svg>
