<svg width="63" height="21" viewBox="0 0 63 21" fill="none" xmlns="http://www.w3.org/2000/svg">
<g id="logo-dell" clip-path="url(#clip0_301_8749)">
<path id="Vector" d="M26.9676 0.146941L16.5866 7.93618C16.0987 6.02031 14.9712 4.31733 13.3817 3.09567C11.7921 1.874 9.8311 1.20311 7.80757 1.18873H0.357147V19.093H7.80757C9.84188 19.1198 11.8239 18.4643 13.422 17.236C15.0201 16.0078 16.1373 14.2813 16.5866 12.3456L26.9676 20.1348L37.3485 12.3456V19.093H49.0581V15.4589H41.3345V1.17661H37.0754V7.92404L27.2284 15.7133L25.105 13.8962L29.8981 10.262L34.9519 6.37347L32.0215 4.03549L22.1745 11.5582L20.0511 9.74111L29.8981 2.4728L26.9676 0.134827V0.146941ZM4.34313 4.81078H7.53442C8.19479 4.81203 8.84713 4.95253 9.4467 5.22265C10.0557 5.49591 10.6041 5.88274 11.061 6.36136C11.5417 6.86512 11.9209 7.45283 12.1785 8.09361C12.708 9.45554 12.708 10.9595 12.1785 12.3214C11.9376 12.9603 11.58 13.5513 11.123 14.0658C10.6789 14.5715 10.1338 14.9836 9.52117 15.2772C8.89011 15.5744 8.19796 15.7277 7.49715 15.7254H4.34313V4.82289V4.81078ZM62.3447 15.4589V19.093H50.6475V1.17661H54.9067V15.4589H62.3571H62.3447Z" fill="#D9EFDE" fill-opacity="0.8"/>
</g>
<defs>
<clipPath id="clip0_301_8749">
<rect width="62" height="20" fill="white" transform="translate(0.357147 0.134827)"/>
</clipPath>
</defs>
</svg>
