<svg width="81" height="25" viewBox="0 0 81 25" fill="none" xmlns="http://www.w3.org/2000/svg">
<g id="logo-ncr" clip-path="url(#clip0_301_8790)">
<path id="Vector" d="M49.0791 13.6416C49.0791 13.6416 48.9187 13.0195 48.9187 12.5583V5.34352H51.6531V19.2401L42.8987 11.5798C42.4303 11.1592 42.1531 10.6896 42.1531 10.6896C42.1531 10.6896 42.2919 11.2074 42.2919 11.6555L42.2895 18.9265H39.5535V5.08441L48.2275 12.5909C48.6927 13.0072 49.0791 13.6416 49.0791 13.6416Z" fill="#D9EFDE" fill-opacity="0.8"/>
<path id="Vector_2" d="M73.8381 5.34485C78.1713 5.34485 79.2809 7.15055 79.2809 9.74583C79.2809 11.6268 77.9701 13.4697 75.3265 13.6878L75.0369 13.7026C75.0369 13.7026 75.2925 13.7503 75.5597 14.0221L80.3573 18.9261H76.6501L69.9525 11.7401H73.2873C76.2745 11.7401 76.3613 10.0768 76.3817 9.65749C76.4377 8.57796 76.1109 7.71484 73.8329 7.71484H70.0197V18.9261H67.1781V5.34485H73.8381Z" fill="#D9EFDE" fill-opacity="0.8"/>
<path id="Vector_3" d="M52.8832 12.3293C52.8832 6.63956 57.39 5.14453 61.1784 5.14453C62.6952 5.14453 64.0384 5.28824 65.452 5.60483L65.456 8.49007C64.6432 8.2259 63.0108 7.64597 61.1788 7.64597C57.5872 7.64597 55.8432 9.12029 55.8432 12.3289C55.8432 14.9571 57.7232 16.6314 61.1788 16.6314C63.0108 16.6314 64.8452 16.1707 65.7336 15.8245L65.7284 18.6235C64.3164 18.9384 62.6956 19.1328 61.1788 19.1328C57.1324 19.1332 52.8832 17.0549 52.8832 12.3293Z" fill="#D9EFDE" fill-opacity="0.8"/>
<path id="Vector_4" d="M22.1121 5.69397L24.7789 8.348C24.7061 8.38224 24.6221 8.42451 24.5233 8.47692C24.3689 8.56188 24.1849 8.67558 23.9645 8.83705C23.5249 9.15617 22.9521 9.66593 22.2193 10.5016L17.0073 16.33C16.1141 17.3275 15.2065 18.1179 14.3625 18.536L11.6941 15.8811C11.7669 15.8451 11.8509 15.8054 11.9481 15.7505C12.1025 15.6672 12.2865 15.5518 12.5069 15.3929C12.9453 15.0708 13.5197 14.564 14.2533 13.7271L19.4641 7.90841C20.3577 6.91214 21.2669 6.112 22.1121 5.69397Z" fill="#D9EFDE" fill-opacity="0.8"/>
<path id="Vector_5" d="M11.7888 19.7829C12.9676 19.7829 14.0512 19.5361 14.7864 19.1333C15.1224 18.9481 15.602 18.6294 16.0144 18.2896C16.4252 17.951 17.0076 17.4235 17.5 16.8702L22.7172 11.0583C24.0332 9.59371 24.824 9.14144 25.304 8.96349L27.98 11.642C27.4216 12.2731 20.7612 19.769 20.7612 19.769C20.3072 20.2872 19.8288 20.7872 19.5036 21.1021C19.1912 21.4065 18.6568 21.86 18.3808 22.0734C16.8144 23.2861 14.722 24.2697 11.9044 24.2697C5.51998 24.2697 0.357178 18.7786 0.357178 12.4557C0.357178 4.61196 6.15678 0.0604999 11.4388 0.0604999C13.058 0.00977784 14.3572 0.297625 15.3844 0.666206C16.3336 1.00731 17.0504 1.41985 17.5704 1.70051C16.9556 2.11686 16.3608 2.68452 15.3804 3.79111L14.3092 5.00632C14.0628 4.90615 12.97 4.50333 11.5672 4.54856C8.17798 4.65423 4.47118 7.55722 4.60478 12.3196C4.72918 16.7726 8.20278 19.7829 11.7888 19.7829Z" fill="#D9EFDE" fill-opacity="0.8"/>
<path id="Vector_6" d="M21.6532 5.13645C21.316 5.32286 20.8376 5.64071 20.4228 5.98055C20.0132 6.31912 19.4312 6.84663 18.9372 7.39866L13.7212 13.2118C12.4052 14.6764 11.614 15.127 11.1344 15.3054L8.45837 12.6294C9.01837 11.9966 15.6776 4.502 15.6776 4.502C16.1328 3.98379 16.61 3.48376 16.9352 3.16759C17.2476 2.86326 17.782 2.41141 18.0604 2.19626C19.624 0.983585 21.7192 0 24.5368 0C30.9208 0 36.0812 5.49151 36.0812 11.8127C36.0812 19.659 30.2828 24.2079 24.9996 24.2079C23.3816 24.2599 22.0812 23.9721 21.0556 23.6005C20.104 23.2607 19.3844 22.8456 18.8656 22.5662C19.5152 22.103 20.0712 21.5949 21.0592 20.4794L22.1288 19.2642C22.3752 19.3627 23.4684 19.766 24.8724 19.722C28.2604 19.6151 31.9684 16.7091 31.8348 11.948C31.7092 7.49714 28.2332 4.48552 24.6492 4.48552C23.4684 4.48552 22.3896 4.73363 21.6532 5.13645Z" fill="#D9EFDE" fill-opacity="0.8"/>
</g>
<defs>
<clipPath id="clip0_301_8790">
<rect width="80" height="24.2697" fill="white" transform="translate(0.357178)"/>
</clipPath>
</defs>
</svg>
