<svg width="88" height="18" viewBox="0 0 88 18" fill="none" xmlns="http://www.w3.org/2000/svg">
<g id="logo-zendesk" clip-path="url(#clip0_301_8753)">
<path id="Vector" d="M58.2131 15.3179C59.3663 15.3432 60.4822 14.9006 61.3161 14.0873L62.8557 15.7789C61.8384 16.8452 60.4323 17.6348 58.2406 17.6348C54.4857 17.6348 52.0622 15.0935 52.0622 11.6542C52.0471 10.8834 52.1811 10.1171 52.4565 9.39913C52.7319 8.6812 53.1433 8.02574 53.6672 7.47025C54.1911 6.91476 54.8171 6.47014 55.5096 6.16184C56.202 5.85353 56.9472 5.6876 57.7025 5.67352H57.9107C61.6381 5.67352 63.7513 8.56765 63.5667 12.5842H54.7449C55.0591 14.2517 56.206 15.3139 58.2131 15.3139V15.3179ZM60.8997 10.6561C60.664 9.10078 59.7528 7.95435 57.9264 7.95435C57.1592 7.90861 56.4036 8.16229 55.8128 8.66397C55.2221 9.16565 54.8403 9.8778 54.7449 10.6561H60.8997Z" fill="#D9EFDE" fill-opacity="0.8"/>
<path id="Vector_2" d="M0.357147 15.1936L7.1404 8.16272H0.518186V5.95404H10.2826V8.20681L3.49936 15.2377H10.3729V17.4424H0.357147V15.1936Z" fill="#D9EFDE" fill-opacity="0.8"/>
<path id="Vector_3" d="M17.989 15.3179C19.1421 15.3432 20.258 14.9006 21.0919 14.0873L22.6316 15.7789C21.6143 16.8452 20.2082 17.6348 18.0165 17.6348C14.2615 17.6348 11.8381 15.0935 11.8381 11.6542C11.823 10.884 11.9567 10.1184 12.2316 9.40095C12.5065 8.68354 12.9172 8.02842 13.4403 7.47304C13.9633 6.91765 14.5885 6.47287 15.28 6.16411C15.9715 5.85534 16.7158 5.68864 17.4705 5.67352H17.6787C21.4061 5.67352 23.5193 8.56765 23.3347 12.5842H14.5208C14.835 14.2517 15.9819 15.3139 17.989 15.3139V15.3179ZM20.6756 10.6561C20.4399 9.10078 19.5287 7.95435 17.7022 7.95435C16.935 7.90861 16.1794 8.16229 15.5887 8.66397C14.9979 9.16565 14.6161 9.8778 14.5208 10.6561H20.6756Z" fill="#D9EFDE" fill-opacity="0.8"/>
<path id="Vector_4" d="M37.9734 11.6662C37.9734 7.9904 40.6639 5.69354 43.6254 5.69354C44.336 5.68416 45.04 5.8336 45.688 6.13136C46.336 6.42913 46.9123 6.868 47.3764 7.41719V0.634827H49.7724V17.4103H47.3764V15.807C46.921 16.3792 46.3453 16.8395 45.6919 17.1538C45.0385 17.4681 44.3242 17.6284 43.6018 17.6228C42.8565 17.617 42.1196 17.4615 41.4331 17.1651C40.7467 16.8686 40.1242 16.4371 39.6012 15.8952C39.0782 15.3532 38.6649 14.7114 38.3849 14.0064C38.1049 13.3015 37.9637 12.5471 37.9694 11.7864C37.9694 11.7383 37.9694 11.6942 37.9694 11.6502L37.9734 11.6662ZM47.51 11.6261C47.4949 10.6532 47.1038 9.72576 46.4217 9.04591C45.7396 8.36605 44.8218 7.98886 43.8684 7.99653C42.915 8.0042 42.0032 8.3961 41.3317 9.08685C40.6601 9.77759 40.2833 10.7112 40.2833 11.6842C40.2833 12.6573 40.6601 13.5909 41.3317 14.2816C42.0032 14.9723 42.915 15.3643 43.8684 15.3719C44.8218 15.3796 45.7396 15.0024 46.4217 14.3225C47.1038 13.6427 47.4949 12.7153 47.51 11.7423V11.6261Z" fill="#D9EFDE" fill-opacity="0.8"/>
<path id="Vector_5" d="M65.1183 14.9732L67.2864 13.8227C67.574 14.3442 67.9955 14.7758 68.5056 15.0711C69.0157 15.3663 69.595 15.514 70.1811 15.4983C71.5362 15.4983 72.2393 14.7888 72.2393 13.9831C72.2393 13.0651 70.9274 12.8567 69.4899 12.5601C67.5692 12.1592 65.5621 11.5018 65.5621 9.13681C65.5621 7.32097 67.255 5.64542 69.9258 5.66546C72.0272 5.66546 73.5865 6.51526 74.4703 7.89418L72.4867 9.02057C72.2085 8.60024 71.8299 8.25928 71.3866 8.02992C70.9433 7.80056 70.45 7.69038 69.9533 7.70979C68.665 7.70979 68.0091 8.35516 68.0091 9.08871C68.0091 9.91446 69.0499 10.147 70.676 10.5117C72.5299 10.9126 74.6313 11.5459 74.6313 13.935C74.6313 15.5384 73.2762 17.6589 70.0633 17.6348C67.7066 17.6348 66.0609 16.6688 65.1143 14.9692" fill="#D9EFDE" fill-opacity="0.8"/>
<path id="Vector_6" d="M81.1433 12.3075L79.2422 14.42V17.4104H76.8463V0.634827H79.2422V11.6181L84.3287 5.91802H87.247L82.8362 10.8364L87.357 17.4104H84.6469L81.1433 12.3075Z" fill="#D9EFDE" fill-opacity="0.8"/>
<path id="Vector_7" d="M30.7305 5.68949C27.8829 5.68949 25.4987 7.57348 25.4987 10.7001V17.4103H27.9418V10.9967C27.9418 9.11274 29.0023 7.98636 30.813 7.98636C32.6237 7.98636 33.5271 9.11274 33.5271 10.9967V17.4103H35.9584V10.6961C35.9584 7.56948 33.5742 5.68549 30.7266 5.68549" fill="#D9EFDE" fill-opacity="0.8"/>
</g>
<defs>
<clipPath id="clip0_301_8753">
<rect width="87" height="17" fill="white" transform="translate(0.357147 0.634827)"/>
</clipPath>
</defs>
</svg>
