<svg width="156" height="33" viewBox="0 0 156 33" fill="none" xmlns="http://www.w3.org/2000/svg">
<path d="M22.9101 3.76628C22.4041 2.54222 20.6538 2.5912 20.2171 3.84166L16.6481 14.0604C16.2357 15.241 14.6186 15.3725 14.0209 14.274L10.6126 8.00917C10.0245 6.92818 8.43964 7.03369 8.00002 8.18309L0.748298 27.1431C0.38732 28.0868 1.08421 29.0995 2.09468 29.0995H31.2264C32.2533 29.0995 32.9509 28.0563 32.5586 27.1073L22.9101 3.76628Z" fill="#D9EFDE"/>
<path d="M55.0011 8.66953H48.0251V28.2695H43.7211V8.66953H36.7451V5.13353H55.0011V8.66953ZM56.9538 14.7015C57.4658 13.7202 58.0738 12.9522 58.7778 12.3975C59.4818 11.8322 60.3138 11.5495 61.2738 11.5495C62.0312 11.5495 62.6392 11.7149 63.0978 12.0455L62.8418 15.0055C62.7885 15.1975 62.7085 15.3362 62.6018 15.4215C62.5058 15.4962 62.3725 15.5335 62.2018 15.5335C62.0418 15.5335 61.8018 15.5069 61.4818 15.4535C61.1725 15.4002 60.8685 15.3735 60.5698 15.3735C60.1325 15.3735 59.7432 15.4375 59.4018 15.5655C59.0605 15.6935 58.7512 15.8802 58.4738 16.1255C58.2072 16.3602 57.9672 16.6482 57.7538 16.9895C57.5512 17.3309 57.3592 17.7202 57.1778 18.1575V28.2695H53.2258V11.8535H55.5458C55.9512 11.8535 56.2338 11.9282 56.3938 12.0775C56.5538 12.2162 56.6605 12.4722 56.7138 12.8455L56.9538 14.7015ZM72.6566 21.2615C71.5152 21.3149 70.5552 21.4162 69.7766 21.5655C68.9979 21.7042 68.3739 21.8855 67.9046 22.1095C67.4352 22.3335 67.0992 22.5949 66.8966 22.8935C66.6939 23.1922 66.5926 23.5175 66.5926 23.8695C66.5926 24.5629 66.7952 25.0589 67.2006 25.3575C67.6166 25.6562 68.1552 25.8055 68.8166 25.8055C69.6272 25.8055 70.3259 25.6615 70.9126 25.3735C71.5099 25.0749 72.0912 24.6269 72.6566 24.0295V21.2615ZM63.6006 14.1415C65.4886 12.4135 67.7606 11.5495 70.4166 11.5495C71.3766 11.5495 72.2352 11.7095 72.9926 12.0295C73.7499 12.3389 74.3899 12.7762 74.9126 13.3415C75.4352 13.8962 75.8299 14.5629 76.0966 15.3415C76.3739 16.1202 76.5126 16.9735 76.5126 17.9015V28.2695H74.7206C74.3472 28.2695 74.0592 28.2162 73.8566 28.1095C73.6539 27.9922 73.4939 27.7629 73.3766 27.4215L73.0246 26.2375C72.6086 26.6109 72.2032 26.9415 71.8086 27.2295C71.4139 27.5069 71.0032 27.7415 70.5766 27.9335C70.1499 28.1255 69.6912 28.2695 69.2006 28.3655C68.7206 28.4722 68.1872 28.5255 67.6006 28.5255C66.9072 28.5255 66.2672 28.4349 65.6806 28.2535C65.0939 28.0615 64.5872 27.7789 64.1606 27.4055C63.7339 27.0322 63.4032 26.5682 63.1686 26.0135C62.9339 25.4589 62.8166 24.8135 62.8166 24.0775C62.8166 23.6615 62.8859 23.2509 63.0246 22.8455C63.1632 22.4295 63.3872 22.0349 63.6966 21.6615C64.0166 21.2882 64.4272 20.9362 64.9286 20.6055C65.4299 20.2749 66.0432 19.9869 66.7686 19.7415C67.5046 19.4962 68.3579 19.2989 69.3286 19.1495C70.2992 18.9895 71.4086 18.8935 72.6566 18.8615V17.9015C72.6566 16.8029 72.4219 15.9922 71.9526 15.4695C71.4832 14.9362 70.8059 14.6695 69.9206 14.6695C69.2806 14.6695 68.7472 14.7442 68.3206 14.8935C67.9046 15.0429 67.5366 15.2135 67.2166 15.4055C66.8966 15.5869 66.6032 15.7522 66.3366 15.9015C66.0806 16.0509 65.7926 16.1255 65.4726 16.1255C65.1952 16.1255 64.9606 16.0562 64.7686 15.9175C64.5766 15.7682 64.4219 15.5975 64.3046 15.4055L63.6006 14.1415ZM83.3706 11.8535V28.2695H79.4026V11.8535H83.3706ZM83.9146 7.06953C83.9146 7.41086 83.8452 7.73086 83.7066 8.02953C83.5679 8.3282 83.3812 8.58953 83.1466 8.81353C82.9226 9.03753 82.6559 9.21886 82.3466 9.35753C82.0372 9.48553 81.7066 9.54953 81.3546 9.54953C81.0132 9.54953 80.6879 9.48553 80.3786 9.35753C80.0799 9.21886 79.8186 9.03753 79.5946 8.81353C79.3706 8.58953 79.1892 8.3282 79.0506 8.02953C78.9226 7.73086 78.8586 7.41086 78.8586 7.06953C78.8586 6.71753 78.9226 6.38686 79.0506 6.07753C79.1892 5.7682 79.3706 5.50153 79.5946 5.27753C79.8186 5.05353 80.0799 4.87753 80.3786 4.74953C80.6879 4.61086 81.0132 4.54153 81.3546 4.54153C81.7066 4.54153 82.0372 4.61086 82.3466 4.74953C82.6559 4.87753 82.9226 5.05353 83.1466 5.27753C83.3812 5.50153 83.5679 5.7682 83.7066 6.07753C83.8452 6.38686 83.9146 6.71753 83.9146 7.06953ZM90.4396 4.49353V28.2695H86.4876V4.49353H90.4396ZM113.295 5.13353V28.2695H108.975V18.1575H98.1111V28.2695H93.7911V5.13353H98.1111V15.0855H108.975V5.13353H113.295ZM120.741 11.8535V28.2695H116.773V11.8535H120.741ZM121.285 7.06953C121.285 7.41086 121.215 7.73086 121.077 8.02953C120.938 8.3282 120.751 8.58953 120.517 8.81353C120.293 9.03753 120.026 9.21886 119.717 9.35753C119.407 9.48553 119.077 9.54953 118.725 9.54953C118.383 9.54953 118.058 9.48553 117.749 9.35753C117.45 9.21886 117.189 9.03753 116.965 8.81353C116.741 8.58953 116.559 8.3282 116.421 8.02953C116.293 7.73086 116.229 7.41086 116.229 7.06953C116.229 6.71753 116.293 6.38686 116.421 6.07753C116.559 5.7682 116.741 5.50153 116.965 5.27753C117.189 5.05353 117.45 4.87753 117.749 4.74953C118.058 4.61086 118.383 4.54153 118.725 4.54153C119.077 4.54153 119.407 4.61086 119.717 4.74953C120.026 4.87753 120.293 5.05353 120.517 5.27753C120.751 5.50153 120.938 5.7682 121.077 6.07753C121.215 6.38686 121.285 6.71753 121.285 7.06953ZM138.61 11.8535L132.098 28.2695H128.514L122.002 11.8535H125.266C125.564 11.8535 125.81 11.9229 126.002 12.0615C126.204 12.2002 126.338 12.3762 126.402 12.5895L129.57 21.3575C129.74 21.8695 129.89 22.3709 130.018 22.8615C130.146 23.3522 130.258 23.8429 130.354 24.3335C130.46 23.8429 130.578 23.3522 130.706 22.8615C130.834 22.3709 130.988 21.8695 131.17 21.3575L134.402 12.5895C134.476 12.3762 134.61 12.2002 134.802 12.0615C134.994 11.9229 135.223 11.8535 135.49 11.8535H138.61ZM149.832 18.1735C149.832 17.6615 149.757 17.1815 149.608 16.7335C149.469 16.2749 149.256 15.8749 148.968 15.5335C148.68 15.1922 148.312 14.9255 147.864 14.7335C147.426 14.5309 146.914 14.4295 146.328 14.4295C145.186 14.4295 144.285 14.7549 143.624 15.4055C142.973 16.0562 142.557 16.9789 142.376 18.1735H149.832ZM142.296 20.5575C142.36 21.4002 142.509 22.1309 142.744 22.7495C142.978 23.3575 143.288 23.8642 143.672 24.2695C144.056 24.6642 144.509 24.9629 145.032 25.1655C145.565 25.3575 146.152 25.4535 146.792 25.4535C147.432 25.4535 147.981 25.3789 148.44 25.2295C148.909 25.0802 149.314 24.9149 149.656 24.7335C150.008 24.5522 150.312 24.3869 150.568 24.2375C150.834 24.0882 151.09 24.0135 151.336 24.0135C151.666 24.0135 151.912 24.1362 152.072 24.3815L153.208 25.8215C152.77 26.3335 152.28 26.7655 151.736 27.1175C151.192 27.4589 150.621 27.7362 150.024 27.9495C149.437 28.1522 148.834 28.2962 148.216 28.3815C147.608 28.4669 147.016 28.5095 146.44 28.5095C145.298 28.5095 144.237 28.3229 143.256 27.9495C142.274 27.5655 141.421 27.0055 140.696 26.2695C139.97 25.5229 139.4 24.6055 138.984 23.5175C138.568 22.4189 138.36 21.1495 138.36 19.7095C138.36 18.5895 138.541 17.5389 138.904 16.5575C139.266 15.5655 139.784 14.7069 140.456 13.9815C141.138 13.2455 141.965 12.6642 142.936 12.2375C143.917 11.8109 145.021 11.5975 146.248 11.5975C147.282 11.5975 148.237 11.7629 149.112 12.0935C149.986 12.4242 150.738 12.9095 151.368 13.5495C151.997 14.1789 152.488 14.9575 152.84 15.8855C153.202 16.8029 153.384 17.8535 153.384 19.0375C153.384 19.6349 153.32 20.0402 153.192 20.2535C153.064 20.4562 152.818 20.5575 152.456 20.5575H142.296Z" fill="#D9EFDE"/>
</svg>
