<svg width="108" height="22" viewBox="0 0 108 22" fill="none" xmlns="http://www.w3.org/2000/svg">
<path d="M15.8933 2.42578C15.5423 1.57662 14.328 1.6106 14.025 2.47806L11.5491 9.56706C11.2631 10.3861 10.1412 10.4773 9.72663 9.71522L7.36223 5.36916C6.95425 4.61925 5.85477 4.69245 5.54979 5.48981L0.51911 18.6428C0.268691 19.2975 0.752138 20 1.45312 20H21.6625C22.3748 20 22.8587 19.2763 22.5866 18.618L15.8933 2.42578Z" fill="#232E26"/>
<path d="M38.0392 6.525H33.2432V20H30.2842V6.525H25.4882V4.094H38.0392V6.525ZM39.3817 10.672C39.7337 9.99733 40.1517 9.46933 40.6357 9.088C41.1197 8.69933 41.6917 8.505 42.3517 8.505C42.8724 8.505 43.2904 8.61867 43.6057 8.846L43.4297 10.881C43.3931 11.013 43.3381 11.1083 43.2647 11.167C43.1987 11.2183 43.1071 11.244 42.9897 11.244C42.8797 11.244 42.7147 11.2257 42.4947 11.189C42.2821 11.1523 42.0731 11.134 41.8677 11.134C41.5671 11.134 41.2994 11.178 41.0647 11.266C40.8301 11.354 40.6174 11.4823 40.4267 11.651C40.2434 11.8123 40.0784 12.0103 39.9317 12.245C39.7924 12.4797 39.6604 12.7473 39.5357 13.048V20H36.8187V8.714H38.4137C38.6924 8.714 38.8867 8.76533 38.9967 8.868C39.1067 8.96333 39.1801 9.13933 39.2167 9.396L39.3817 10.672ZM50.1774 15.182C49.3927 15.2187 48.7327 15.2883 48.1974 15.391C47.662 15.4863 47.233 15.611 46.9104 15.765C46.5877 15.919 46.3567 16.0987 46.2174 16.304C46.078 16.5093 46.0084 16.733 46.0084 16.975C46.0084 17.4517 46.1477 17.7927 46.4264 17.998C46.7124 18.2033 47.0827 18.306 47.5374 18.306C48.0947 18.306 48.575 18.207 48.9784 18.009C49.389 17.8037 49.7887 17.4957 50.1774 17.085V15.182ZM43.9514 10.287C45.2494 9.099 46.8114 8.505 48.6374 8.505C49.2974 8.505 49.8877 8.615 50.4084 8.835C50.929 9.04767 51.369 9.34833 51.7284 9.737C52.0877 10.1183 52.359 10.5767 52.5424 11.112C52.733 11.6473 52.8284 12.234 52.8284 12.872V20H51.5964C51.3397 20 51.1417 19.9633 51.0024 19.89C50.863 19.8093 50.753 19.6517 50.6724 19.417L50.4304 18.603C50.1444 18.8597 49.8657 19.087 49.5944 19.285C49.323 19.4757 49.0407 19.637 48.7474 19.769C48.454 19.901 48.1387 20 47.8014 20.066C47.4714 20.1393 47.1047 20.176 46.7014 20.176C46.2247 20.176 45.7847 20.1137 45.3814 19.989C44.978 19.857 44.6297 19.6627 44.3364 19.406C44.043 19.1493 43.8157 18.8303 43.6544 18.449C43.493 18.0677 43.4124 17.624 43.4124 17.118C43.4124 16.832 43.46 16.5497 43.5554 16.271C43.6507 15.985 43.8047 15.7137 44.0174 15.457C44.2374 15.2003 44.5197 14.9583 44.8644 14.731C45.209 14.5037 45.6307 14.3057 46.1294 14.137C46.6354 13.9683 47.222 13.8327 47.8894 13.73C48.5567 13.62 49.3194 13.554 50.1774 13.532V12.872C50.1774 12.1167 50.016 11.5593 49.6934 11.2C49.3707 10.8333 48.905 10.65 48.2964 10.65C47.8564 10.65 47.4897 10.7013 47.1964 10.804C46.9104 10.9067 46.6574 11.024 46.4374 11.156C46.2174 11.2807 46.0157 11.3943 45.8324 11.497C45.6564 11.5997 45.4584 11.651 45.2384 11.651C45.0477 11.651 44.8864 11.6033 44.7544 11.508C44.6224 11.4053 44.516 11.288 44.4354 11.156L43.9514 10.287ZM57.5432 8.714V20H54.8152V8.714H57.5432ZM57.9172 5.425C57.9172 5.65967 57.8696 5.87967 57.7742 6.085C57.6789 6.29033 57.5506 6.47 57.3892 6.624C57.2352 6.778 57.0519 6.90267 56.8392 6.998C56.6266 7.086 56.3992 7.13 56.1572 7.13C55.9226 7.13 55.6989 7.086 55.4862 6.998C55.2809 6.90267 55.1012 6.778 54.9472 6.624C54.7932 6.47 54.6686 6.29033 54.5732 6.085C54.4852 5.87967 54.4412 5.65967 54.4412 5.425C54.4412 5.183 54.4852 4.95567 54.5732 4.743C54.6686 4.53033 54.7932 4.347 54.9472 4.193C55.1012 4.039 55.2809 3.918 55.4862 3.83C55.6989 3.73467 55.9226 3.687 56.1572 3.687C56.3992 3.687 56.6266 3.73467 56.8392 3.83C57.0519 3.918 57.2352 4.039 57.3892 4.193C57.5506 4.347 57.6789 4.53033 57.7742 4.743C57.8696 4.95567 57.9172 5.183 57.9172 5.425ZM62.4032 3.654V20H59.6862V3.654H62.4032ZM78.1163 4.094V20H75.1463V13.048H67.6773V20H64.7073V4.094H67.6773V10.936H75.1463V4.094H78.1163ZM83.2351 8.714V20H80.5071V8.714H83.2351ZM83.6091 5.425C83.6091 5.65967 83.5614 5.87967 83.4661 6.085C83.3708 6.29033 83.2424 6.47 83.0811 6.624C82.9271 6.778 82.7438 6.90267 82.5311 6.998C82.3184 7.086 82.0911 7.13 81.8491 7.13C81.6144 7.13 81.3908 7.086 81.1781 6.998C80.9728 6.90267 80.7931 6.778 80.6391 6.624C80.4851 6.47 80.3604 6.29033 80.2651 6.085C80.1771 5.87967 80.1331 5.65967 80.1331 5.425C80.1331 5.183 80.1771 4.95567 80.2651 4.743C80.3604 4.53033 80.4851 4.347 80.6391 4.193C80.7931 4.039 80.9728 3.918 81.1781 3.83C81.3908 3.73467 81.6144 3.687 81.8491 3.687C82.0911 3.687 82.3184 3.73467 82.5311 3.83C82.7438 3.918 82.9271 4.039 83.0811 4.193C83.2424 4.347 83.3708 4.53033 83.4661 4.743C83.5614 4.95567 83.6091 5.183 83.6091 5.425ZM95.52 8.714L91.043 20H88.579L84.102 8.714H86.346C86.5514 8.714 86.72 8.76167 86.852 8.857C86.9914 8.95233 87.083 9.07333 87.127 9.22L89.305 15.248C89.4224 15.6 89.525 15.9447 89.613 16.282C89.701 16.6193 89.778 16.9567 89.844 17.294C89.9174 16.9567 89.998 16.6193 90.086 16.282C90.174 15.9447 90.2804 15.6 90.405 15.248L92.627 9.22C92.6784 9.07333 92.77 8.95233 92.902 8.857C93.034 8.76167 93.1917 8.714 93.375 8.714H95.52ZM103.235 13.059C103.235 12.707 103.184 12.377 103.081 12.069C102.986 11.7537 102.839 11.4787 102.641 11.244C102.443 11.0093 102.19 10.826 101.882 10.694C101.582 10.5547 101.23 10.485 100.826 10.485C100.042 10.485 99.422 10.7087 98.9673 11.156C98.52 11.6033 98.234 12.2377 98.1093 13.059H103.235ZM98.0543 14.698C98.0983 15.2773 98.201 15.7797 98.3623 16.205C98.5237 16.623 98.7363 16.9713 99.0003 17.25C99.2643 17.5213 99.576 17.7267 99.9353 17.866C100.302 17.998 100.705 18.064 101.145 18.064C101.585 18.064 101.963 18.0127 102.278 17.91C102.601 17.8073 102.88 17.6937 103.114 17.569C103.356 17.4443 103.565 17.3307 103.741 17.228C103.925 17.1253 104.101 17.074 104.269 17.074C104.497 17.074 104.665 17.1583 104.775 17.327L105.556 18.317C105.256 18.669 104.918 18.966 104.544 19.208C104.17 19.4427 103.778 19.6333 103.367 19.78C102.964 19.9193 102.55 20.0183 102.124 20.077C101.706 20.1357 101.299 20.165 100.903 20.165C100.119 20.165 99.389 20.0367 98.7143 19.78C98.0397 19.516 97.453 19.131 96.9543 18.625C96.4557 18.1117 96.0633 17.481 95.7773 16.733C95.4913 15.9777 95.3483 15.105 95.3483 14.115C95.3483 13.345 95.473 12.6227 95.7223 11.948C95.9717 11.266 96.3273 10.6757 96.7893 10.177C97.2587 9.671 97.827 9.27133 98.4943 8.978C99.169 8.68467 99.928 8.538 100.771 8.538C101.483 8.538 102.139 8.65167 102.74 8.879C103.342 9.10633 103.859 9.44 104.291 9.88C104.724 10.3127 105.061 10.848 105.303 11.486C105.553 12.1167 105.677 12.839 105.677 13.653C105.677 14.0637 105.633 14.3423 105.545 14.489C105.457 14.6283 105.289 14.698 105.039 14.698H98.0543Z" fill="#232E26"/>
</svg>
