<svg width="121" height="24" viewBox="0 0 121 24" fill="none" xmlns="http://www.w3.org/2000/svg">
<g id="logo-lattice" clip-path="url(#clip0_301_8799)">
<g id="Page 1">
<g id="slide">
<g id="logo full white">
<g id="nest">
<path id="Combined Shape" fill-rule="evenodd" clip-rule="evenodd" d="M10.7091 16.4312L14.0499 19.8447L11.263 22.8131C10.3592 23.7757 8.89371 23.7757 7.98998 22.8131L1.03497 15.4056C0.131246 14.4427 0.131246 12.8822 1.03497 11.9197C1.93899 10.9571 3.40422 10.9571 4.30795 11.9197L9.62647 17.5842L10.7091 16.4312ZM11.5775 15.5062L14.5365 12.3547L17.8092 15.8406L15.0845 18.7427L11.5775 15.5062Z" fill="#D9EFDE"/>
<path id="Combined Shape_2" fill-rule="evenodd" clip-rule="evenodd" d="M24.9657 18.6771L21.4785 15.4193L29.6732 6.69144C30.5769 5.72891 32.0422 5.72891 32.9462 6.69144C33.8499 7.65397 33.8499 9.21454 32.9462 10.1774L24.9657 18.6771ZM23.8812 19.8322L21.0826 22.8129C20.1785 23.7754 18.7133 23.7754 17.8096 22.8129L5.94483 10.1761C5.0411 9.2133 5.0411 7.65274 5.94483 6.69021C6.84855 5.72737 8.31379 5.72737 9.2178 6.69021L19.4461 17.584L20.5965 16.3587L23.8812 19.8322Z" fill="#D9EFDE"/>
<path id="Combined Shape_3" fill-rule="evenodd" clip-rule="evenodd" d="M19.9373 14.6201L23.1948 11.1179L29.2658 17.584L34.5832 11.9207C35.4872 10.9581 36.9524 10.9581 37.8562 11.9207C38.7599 12.8835 38.7599 14.4441 37.8562 15.4066L30.9023 22.8129C29.9986 23.7754 28.5333 23.7754 27.6296 22.8129L19.9373 14.6201ZM18.5878 13.1828L10.8548 4.94665C9.95107 3.98412 9.95107 2.42355 10.8548 1.46102C11.7588 0.498182 13.224 0.498182 14.1278 1.46102L21.8688 9.70571L18.5878 13.1828Z" fill="#D9EFDE"/>
<path id="bg" fill-rule="evenodd" clip-rule="evenodd" d="M28.0364 1.46225C27.1327 0.499724 25.6675 0.499724 24.7634 1.46225L14.5363 12.3548L17.8093 15.8407L28.0364 4.94819C28.9401 3.98535 28.9401 2.42478 28.0364 1.46225Z" fill="#D9EFDE"/>
</g>
<g id="lattice">
<path id="Lattice" fill-rule="evenodd" clip-rule="evenodd" d="M50.5148 3.16459H47.6688V20.97H58.0965V18.281H50.5148V3.16459ZM64.2559 8.51831C65.9862 8.51831 67.1474 9.26929 67.7849 10.1898L67.9215 8.76056H70.3804V20.97H67.9215L67.7849 19.5407C67.1474 20.4612 65.9862 21.2122 64.2559 21.2122C61.1367 21.2122 59.0193 18.5232 59.0193 14.8653C59.0193 11.1831 61.1367 8.51831 64.2559 8.51831ZM64.8478 11.0862C63.0719 11.0862 61.7969 12.5639 61.7969 14.8653C61.7969 17.1666 63.0719 18.6444 64.8478 18.6444C66.2139 18.6444 67.0336 17.8692 67.6483 16.8275V12.903C67.0336 11.8614 66.2139 11.0862 64.8478 11.0862ZM77.2684 4.66654H74.5362V8.76056H72.3733V11.2315H74.5362V16.6579C74.5362 19.6134 76.1983 21.2122 78.8166 21.2122C79.955 21.2122 80.7974 20.8731 81.3666 20.4855L80.638 18.2083C80.2965 18.4263 79.7956 18.5959 79.067 18.5959C77.997 18.5959 77.2684 17.8692 77.2684 16.6337V11.2315H80.7291V8.76056H77.2684V4.66654ZM86.6836 4.66654H83.9514V8.76056H81.7885V11.2315H83.9514V16.6579C83.9514 19.6134 85.6135 21.2122 88.2318 21.2122C89.3702 21.2122 90.2126 20.8731 90.7818 20.4855L90.0532 18.2083C89.7117 18.4263 89.2108 18.5959 88.4822 18.5959C87.4121 18.5959 86.6836 17.8692 86.6836 16.6337V11.2315H90.1443V8.76056H86.6836V4.66654ZM95.3474 8.76056H92.6153V20.97H95.3474V8.76056ZM93.9813 3.06769C93.0251 3.06769 92.2965 3.81866 92.2965 4.86034C92.2965 5.90201 93.0251 6.65299 93.9813 6.65299C94.9603 6.65299 95.6889 5.90201 95.6889 4.86034C95.6889 3.81866 94.9603 3.06769 93.9813 3.06769ZM103.601 8.51831C100.072 8.51831 97.7273 11.1831 97.7273 14.8653C97.7273 18.5232 100.095 21.2122 103.624 21.2122C105.696 21.2122 107.267 20.219 108.292 18.5232L106.334 16.9002C105.787 17.8692 104.899 18.6686 103.647 18.6686C101.621 18.6686 100.505 16.9971 100.505 14.8653C100.505 12.7092 101.575 11.0619 103.624 11.0619C104.899 11.0619 105.742 11.8371 106.265 12.8061L108.246 11.2073C107.222 9.51154 105.696 8.51831 103.601 8.51831ZM114.975 8.51831C118.504 8.51831 120.234 11.3284 120.234 14.7441V15.7616H112.129C112.197 17.6996 113.29 18.7655 115.202 18.7655C116.546 18.7655 117.525 18.1356 118.048 17.3604L119.938 19.0077C118.8 20.4612 117.297 21.2122 115.18 21.2122C111.628 21.2122 109.351 18.5475 109.351 14.8895C109.351 11.2073 111.673 8.51831 114.975 8.51831ZM114.929 10.8439C113.313 10.8439 112.22 11.9825 112.129 13.6782H117.547C117.479 12.0067 116.568 10.8439 114.929 10.8439Z" fill="#D9EFDE" fill-opacity="0.8"/>
</g>
</g>
</g>
</g>
</g>
<defs>
<clipPath id="clip0_301_8799">
<rect width="120" height="22.8" fill="white" transform="translate(0.357178 0.734802)"/>
</clipPath>
</defs>
</svg>
