<svg width="144" height="14" viewBox="0 0 144 14" fill="none" xmlns="http://www.w3.org/2000/svg">
<g id="logo-pacific-funds" clip-path="url(#clip0_301_8774)">
<path id="Vector" d="M27.9558 12.8329C27.9558 12.7363 27.9558 12.5914 27.9558 12.4949C27.9013 12.4949 24.3586 12.688 22.6145 12.688C20.3255 12.688 17.0554 12.6397 17.0554 12.6397L2.01276 12.5431C2.01276 12.4949 2.01276 12.3017 2.01276 12.2534L17.1099 12.2051C17.1099 12.2051 20.38 12.2534 22.669 12.2534C24.4131 12.2534 27.9013 12.2534 27.9558 12.2534C27.9558 12.1086 27.9013 11.8671 27.9013 11.6739C27.8468 11.6739 24.3586 11.9154 22.669 11.9154C20.38 11.9154 17.1099 11.7705 17.1099 11.7705H13.2402L8.11698 11.6257H2.06726C2.06726 11.5774 2.12177 11.3842 2.12177 11.3359C2.33977 11.3842 2.50328 11.4325 3.2663 11.4325C4.24734 11.4325 4.68336 11.2393 4.68336 11.2393C4.68336 11.2393 5.39189 11.4325 6.3184 11.4325C6.75443 11.4325 7.73551 11.0462 8.33499 11.1911C9.31607 11.4325 9.69754 11.0462 9.69754 11.0462C9.69754 11.0462 9.91555 11.2877 10.3516 11.3842C10.6786 11.4325 11.1146 11.2393 11.1146 11.2393C11.1146 11.2393 11.6596 11.5774 13.2402 11.5774C15.1478 11.5774 15.6928 10.6599 15.6928 10.6599H15.7473C15.7473 10.6599 15.6928 10.9013 15.8018 11.0945C16.0198 11.4808 16.6193 11.5291 16.6193 11.5291C16.5648 10.4668 17.0554 9.74245 17.0554 9.74245H17.1099L17.0009 10.0321C16.7828 10.8048 17.1644 11.4808 17.1644 11.4808L17.3278 11.3842C17.3278 11.3842 17.1644 10.9013 17.3278 10.2253C17.4913 9.54929 17.7638 9.21124 17.7638 9.21124H17.8729C17.8729 9.21124 17.7093 9.74245 17.7093 10.1287C17.7093 10.4668 17.9274 11.2877 18.6359 11.5291C19.1809 11.7222 19.6169 11.2877 19.6169 11.2877C19.6169 11.2877 20.816 11.5774 21.797 11.5774C24.1406 11.5774 24.6856 11.2393 24.6856 11.2393C24.6856 11.2393 24.8491 11.4808 26.0482 11.4808C26.7567 11.4808 27.3017 11.4325 27.6287 11.3842C27.7377 11.3842 27.7923 11.3842 27.8468 11.3359C27.8468 11.1428 27.7923 10.9979 27.7377 10.8048C27.0837 7.56945 24.9582 4.76875 22.0151 2.98209L21.8515 3.41668C24.7401 5.10676 26.8657 7.7626 27.4652 10.9013C27.1382 10.9979 26.6477 11.1428 26.0482 11.1428C25.1217 11.1428 24.9037 10.9013 24.9037 10.9013C24.9037 10.9013 24.5766 11.0945 23.9771 11.0945C23.4321 11.0945 23.0506 10.7564 23.0506 10.7564C23.0506 10.7564 22.5055 11.2393 21.5245 11.2393C20.38 11.2393 19.7804 10.6116 19.5624 10.3219C19.3444 10.0321 19.2354 9.79071 19.2354 9.79071H19.1809C19.1809 9.88729 19.2354 10.0321 19.2899 10.177C19.4534 10.5633 19.5624 10.6599 19.6169 10.7564C19.6714 10.8048 19.7259 10.9496 19.5624 10.9979C19.4534 11.0462 19.3989 10.9496 19.3444 10.9013C19.2899 10.8048 19.0719 10.5633 18.9629 10.177C18.7994 9.74245 18.7994 9.45271 18.7449 9.21124H18.6359C18.5814 9.4044 18.5814 9.74245 18.5814 10.1287C18.6359 10.5633 18.7449 10.853 18.7994 10.9496C18.7994 10.9496 18.8539 10.9979 18.8539 11.0462C18.8539 11.1911 18.7449 11.2393 18.6359 11.2393C18.5269 11.2393 18.4179 11.1428 18.3634 11.0462C17.8729 10.3219 18.4724 8.87324 18.6359 8.43866C18.9084 7.81092 18.9629 7.18313 18.9629 7.18313C18.9629 7.18313 19.2899 6.70029 19.4534 6.36223C19.6714 5.92766 19.8349 5.54136 19.9985 5.3965C20.2165 5.20334 20.5979 4.72046 20.9795 4.09272C21.034 3.99614 21.361 3.3201 21.4155 3.17524C21.47 3.07867 21.5245 2.9338 21.579 2.83722C21.7425 2.25777 21.906 1.58173 21.906 1.48516C21.906 1.3403 21.6335 1.24372 21.6335 1.24372C21.6335 1.24372 21.361 1.14714 21.1975 1.14714C21.0885 1.14714 20.9795 1.24372 20.8705 1.29201C20.707 1.3403 20.6525 1.29201 20.6525 1.29201C20.6525 1.29201 20.4344 1.19543 20.3255 1.24372C20.2165 1.24372 20.1075 1.38858 19.9985 1.38858C19.8349 1.43687 19.7804 1.43687 19.7804 1.43687C19.7804 1.43687 19.6169 1.38858 19.5079 1.38858C19.3989 1.43687 19.2899 1.48516 19.0719 1.63002C17.5458 1.14714 15.9653 0.905701 14.3302 0.905701C6.86344 0.905701 0.759212 6.21739 0.650208 12.8329C0.650208 12.8811 0.650208 13.1709 0.650208 13.1709H27.9558C27.9558 13.1709 27.9558 12.8811 27.9558 12.8329ZM10.5696 10.4184C10.5151 10.4184 10.5696 10.3702 10.5151 10.3702C10.8966 9.30782 11.7686 7.13487 13.1857 5.49307C13.3492 5.54136 13.4582 5.63793 13.6217 5.68622C12.5861 6.70029 11.2236 8.68008 10.5696 10.4184ZM11.3871 10.7564C11.6596 9.79071 12.3682 7.7626 13.8942 5.83109C14.0577 5.92767 14.1667 5.97595 14.3302 6.07255C13.2947 7.27971 12.0412 9.21124 11.4961 10.8048C11.4416 10.8048 11.4416 10.7564 11.3871 10.7564ZM12.4772 10.9979C12.4227 10.9979 12.4772 10.9979 12.4227 10.9979C12.6406 10.2253 13.2402 8.19718 14.6572 6.21739C14.8207 6.31397 14.9298 6.36223 15.0388 6.45881C14.0577 7.7626 12.9677 9.54929 12.4772 10.9979ZM13.5127 10.9979C13.4582 10.9979 13.4582 10.9979 13.4582 10.9979C13.6762 10.2736 14.1667 8.48692 15.3658 6.70029C15.5293 6.79687 15.6928 6.89345 15.7473 6.99002C14.8752 8.14892 13.9487 9.69413 13.5127 10.9979ZM17.1099 7.7626C16.8373 7.7626 16.4558 7.66602 16.3468 7.47287C16.4013 7.81092 16.8373 8.1006 17.2189 8.1006C17.1099 8.1006 17.0554 8.14892 16.9463 8.14892C16.4558 8.14892 16.0198 7.7626 16.0198 7.32802C16.0198 7.27971 16.0198 7.18313 16.0198 7.13487C16.4013 7.4246 17.2189 7.81092 17.7093 7.23145V7.27971C17.6548 7.52118 17.3823 7.7626 17.1099 7.7626ZM18.6359 5.87937C18.6359 6.02424 18.5269 6.07255 18.4179 6.12081C18.3634 6.16913 18.1999 6.21739 18.1999 6.26565H18.1454C18.1454 6.26565 18.0909 6.21739 18.0364 6.21739C18.0364 6.16913 18.0364 6.16913 18.0364 6.16913V6.12081V6.02424C18.0364 6.02424 17.9819 5.92767 18.0364 5.83109C18.0364 5.68622 18.1999 5.58965 18.1999 5.58965H18.2544C18.2544 5.58965 18.1999 5.68622 18.1454 5.7828C18.1454 5.83109 18.0909 5.97595 18.1454 6.07255V6.16913L18.1999 6.21739L18.2544 6.16913C18.3634 6.12081 18.3634 6.07255 18.3634 6.07255C18.3634 6.07255 18.2544 5.97595 18.3089 5.87937C18.3634 5.7828 18.5269 5.7828 18.5269 5.7828C18.5814 5.63793 18.5269 5.54136 18.5269 5.54136L18.6359 5.58965C18.5814 5.54136 18.6359 5.68622 18.6359 5.87937ZM19.3444 1.77489C19.5079 1.7266 19.5624 1.63002 19.7259 1.58173C19.8895 1.53344 19.9985 1.58173 20.1075 1.58173C20.2165 1.58173 20.38 1.43687 20.4889 1.43687C20.5979 1.43687 20.6525 1.48516 20.7615 1.48516C20.816 1.58173 21.143 1.38858 21.1975 1.38858C21.252 1.38858 21.47 1.38858 21.4155 1.58173C21.361 1.7266 21.252 2.16119 21.034 2.74065C20.9795 2.88551 20.8705 3.07867 20.7615 3.27182C20.6525 3.46497 20.5434 3.70641 20.38 3.89956C19.7804 4.76875 19.1809 4.57559 18.0364 5.05848C17.1099 5.44479 16.7283 5.68622 16.6193 5.83109C16.5103 5.73451 16.4558 5.73451 16.3468 5.68622C16.5103 5.54136 16.8918 5.29992 17.6548 4.9619C18.4724 4.57559 19.8349 4.09272 20.1075 3.65813C20.1075 3.60984 20.1075 3.60984 20.1075 3.56155C19.7804 3.7547 19.5079 3.85127 19.3989 3.94785C18.0909 4.52731 17.6003 4.67217 17.0009 4.9619C16.7283 5.10676 16.2923 5.29992 16.0198 5.49307C15.9653 5.44479 15.8563 5.3965 15.8018 5.34821C16.0743 5.15505 16.4558 4.9619 16.8373 4.76875C17.4368 4.52731 17.9274 4.28587 19.3444 3.56155C19.4534 3.51326 20.162 3.12696 20.707 2.74065C20.707 2.69236 20.707 2.64407 20.7615 2.59579C20.271 2.83722 18.6904 3.60984 18.3634 3.7547C17.0554 4.33416 17.1099 4.28587 16.5103 4.57559C16.1288 4.76875 15.7473 4.9619 15.4748 5.15505C15.4203 5.10676 15.3113 5.05848 15.2568 5.01019C15.5838 4.81704 15.8563 4.62388 16.2923 4.43073C16.8918 4.141 16.9463 4.09272 18.3089 3.51326C18.9629 3.22353 20.162 2.49921 20.816 2.16119C20.816 2.1129 20.816 2.1129 20.816 2.06462C20.162 2.40263 18.2544 3.27182 17.9819 3.41668C16.6738 3.94785 16.5103 3.99614 15.9108 4.28587C15.5838 4.43073 15.2568 4.62388 14.9843 4.76875C14.9298 4.72046 14.8752 4.67217 14.8207 4.62388C15.0388 4.47902 15.4203 4.23758 15.9108 3.99614C16.5103 3.70641 16.6193 3.65813 17.9274 3.07867C18.0909 3.03038 18.7449 2.69236 19.3444 2.35434C19.5079 2.25777 19.7259 2.16119 19.8895 2.06462C20.053 1.96804 20.162 1.87147 20.271 1.82318L20.2165 1.77489C19.944 1.87147 19.5624 2.06461 19.4534 2.1129C18.7449 2.45092 17.8729 2.83722 17.6003 2.9338C16.2923 3.51326 16.1288 3.56155 15.5293 3.85127C15.2023 3.99614 14.8207 4.18929 14.6027 4.38244C14.5482 4.33416 14.4937 4.28587 14.4392 4.23758C14.7117 4.04443 15.0933 3.80299 15.5293 3.60984C16.1288 3.3201 16.2378 3.27182 17.5458 2.69236C17.7638 2.59579 17.9819 2.49921 18.1454 2.40263C18.1999 2.40263 18.7994 2.1129 19.3444 1.77489ZM14.8753 1.48516C16.1288 1.48516 17.3823 1.63002 18.5269 1.96804C18.3089 2.1129 17.9819 2.25777 17.5458 2.45092C16.0198 3.12696 15.8563 3.17524 15.2023 3.46497C14.7662 3.65813 14.4392 3.85127 14.1667 4.04443C14.1667 4.04443 13.8942 3.70641 13.7307 3.60984C13.5672 3.51326 13.1857 3.41668 13.0767 3.36839C12.8587 3.27182 12.8042 3.17524 12.4772 3.07867C12.2047 2.98209 11.9867 3.03038 11.8231 3.03038C11.6596 2.98209 11.4961 2.9338 11.2236 2.9338C11.0601 2.9338 10.8421 3.03038 10.6786 3.03038C10.4606 3.03038 10.2971 2.98209 10.1336 2.98209C9.97006 3.03038 9.75204 3.17524 9.53402 3.17524C9.37051 3.22353 9.15255 3.17524 9.04355 3.17524C8.93454 3.22353 8.66202 3.41668 8.49851 3.46497C8.3895 3.51326 8.06247 3.51326 8.11698 3.7547C8.11698 3.94785 8.60751 3.99614 8.60751 3.99614C8.60751 3.99614 10.7331 4.23758 12.8042 5.20334C12.5316 5.54136 12.2047 5.87937 11.9866 6.26565C11.8231 6.21739 11.6051 6.16913 11.4961 6.16913C11.2781 6.16913 11.0601 6.26565 10.8966 6.21739C10.5696 6.21739 10.5696 6.16913 10.1881 6.21739C9.91555 6.26565 9.91555 6.31397 9.69754 6.36223C9.53402 6.41055 9.37051 6.36223 9.09805 6.41055C8.98904 6.45881 8.77103 6.65197 8.60751 6.70029C8.49851 6.74855 8.28049 6.74855 8.11698 6.84513C8.00797 6.94171 8.00797 7.03829 7.73551 7.13487C7.57199 7.23145 7.46299 7.18313 7.29947 7.32802C7.19046 7.52118 7.19046 7.66602 6.91794 7.85918C6.59092 8.1006 6.59092 8.29376 6.64542 8.34208C6.75443 8.53524 7.24497 8.34208 7.24497 8.34208C7.24497 8.34208 8.98904 7.81092 11.0601 7.71434C10.5151 8.68008 10.0791 9.59755 9.80654 10.2253C9.75204 10.3702 9.69754 10.515 9.64303 10.6116C9.58853 10.6116 9.58853 10.6116 9.58853 10.6116C9.47952 10.515 9.47952 10.3702 9.53402 10.0321C9.58853 9.69413 9.91555 9.01808 10.0246 8.87324H9.91555C9.80655 9.01808 9.47952 9.54929 9.42502 9.64587C9.31607 9.83903 9.26156 9.88729 9.04355 10.3219C8.98904 10.4184 8.88003 10.6116 8.71652 10.6116C8.60751 10.6116 8.49851 10.5633 8.49851 10.4668C8.49851 10.4184 8.55301 10.3219 8.60751 10.3219C8.88003 9.93555 9.09805 9.54929 9.15255 9.35613H9.04355C9.04355 9.35613 8.28049 10.9013 6.64542 10.9013C6.10042 10.9013 5.50089 10.6599 5.50089 10.6599C5.50089 10.6599 4.73786 10.9496 3.70233 10.9496C2.88479 10.9496 2.39427 10.8048 2.17626 10.7564C3.32081 5.54136 8.3895 1.48516 14.8753 1.48516Z" fill="#D9EFDE" fill-opacity="0.8"/>
<path id="Vector_2" d="M52.6994 12.8811L52.5904 12.8329C51.9364 12.5431 51.7183 11.7222 51.3914 10.9979L48.0667 3.17523H44.9056V3.41667L45.0691 3.46496C45.0691 3.46496 45.2327 3.51325 45.2872 3.56154C45.4506 3.65811 45.6141 3.85126 45.3961 4.33415C45.3961 4.57559 45.2872 4.76874 45.2872 4.76874L42.671 10.9979C42.3985 11.674 42.1805 12.5431 41.5265 12.8329L41.3085 12.9294V13.1709H44.8511V12.9294L44.5786 12.8329C44.2516 12.7363 44.1971 12.4465 44.5241 11.6256L44.9056 10.515H48.6662C48.7752 10.7565 48.8842 11.0945 49.0478 11.5774C49.2113 12.0602 49.4838 12.688 49.1023 12.8811L48.8842 12.9777V13.2192H52.6994V12.8811ZM48.1213 8.87322H45.6141L46.8677 5.78279L48.1213 8.87322Z" fill="#D9EFDE" fill-opacity="0.8"/>
<path id="Vector_3" d="M75.7 3.17523V3.41667L75.9725 3.51325C76.4086 3.65811 76.3541 4.57559 76.3541 5.15505V11.1911C76.3541 11.674 76.3541 12.688 75.9725 12.8329L75.7 12.9294V13.1709H79.2967V12.9294L79.0242 12.8329C78.5881 12.688 78.6426 11.674 78.6426 11.1911V5.15505C78.6426 4.33415 78.7517 3.60983 79.0242 3.51325L79.2967 3.41667V3.17523H75.7Z" fill="#D9EFDE" fill-opacity="0.8"/>
<path id="Vector_4" d="M62.1824 3.17523V3.41667L62.455 3.51325C62.891 3.65811 62.8365 4.57559 62.8365 5.15505V11.1911C62.8365 11.674 62.8365 12.688 62.455 12.8329L62.1824 12.9294V13.1709H65.7797V12.9294L65.5072 12.8329C65.0712 12.688 65.1257 11.674 65.1257 11.1911V5.15505C65.1257 4.33415 65.2347 3.60983 65.5072 3.51325L65.7797 3.41667V3.17523H62.1824Z" fill="#D9EFDE" fill-opacity="0.8"/>
<path id="Vector_5" d="M41.9632 2.306C41.1457 1.58168 39.8921 1.19537 38.5296 1.19537H33.8969V1.43682L34.1149 1.48511C34.7145 1.72654 34.66 3.03032 34.66 3.99608V10.3218V10.5633C34.66 11.2876 34.66 12.5914 34.1149 12.7845L33.8969 12.8811V13.1225H38.1481V12.8811L37.9846 12.7845C37.2215 12.3499 37.2215 11.3842 37.2215 10.3701V8.24543L37.6576 8.39033C37.6576 8.39033 38.3661 8.63175 39.0201 8.63175C40.9822 8.63175 43.1077 7.42454 43.1077 4.81698C43.1077 3.85122 42.7263 2.98203 41.9632 2.306ZM37.8211 7.71427L37.4396 7.76254H37.2215V3.27177C37.4941 3.22348 37.8211 3.22348 38.2571 3.22348C39.1291 3.22348 39.8376 3.41663 40.2191 3.80294C40.6007 4.14095 40.7642 4.57554 40.7642 5.20329C40.7642 6.70022 39.2381 7.61769 37.8211 7.71427Z" fill="#D9EFDE" fill-opacity="0.8"/>
<path id="Vector_6" d="M99.8993 1.1954H97.9916H92.5412V1.48513L92.8682 1.58171C93.3588 1.77486 93.3588 2.88548 93.3588 3.51323V10.7565C93.3588 11.3359 93.3588 12.5431 92.8682 12.7363L92.5412 12.8328V13.1226H96.629V12.8328L96.302 12.7363C95.8115 12.5431 95.8114 11.3842 95.8114 10.7565V8.39031H98.2096C98.2096 8.39031 99.2452 8.29373 99.4087 8.68004L99.4632 8.82494L99.7357 8.8732L99.8993 5.68619H99.5177L99.4632 5.87935C99.3542 6.12078 98.4276 6.21736 98.1551 6.16909H95.7569C95.7569 5.10674 95.7569 3.80296 95.7569 3.2235H98.7002C99.4087 3.2235 99.7903 3.36837 99.8993 3.70639L99.9532 3.89953H100.28L101.043 1.05054C101.152 1.14711 100.171 1.1954 99.8993 1.1954Z" fill="#D9EFDE" fill-opacity="0.8"/>
<path id="Vector_7" d="M60.9834 10.4667L60.9289 10.515C60.8199 10.6116 60.7109 10.6599 60.7109 10.6599C60.0568 11.0462 58.9667 11.4808 57.8769 11.4808C57.0049 11.4808 56.2964 11.2394 55.6968 10.7565C54.9883 10.1287 54.6068 9.11466 54.6068 7.95577C54.6068 6.12082 55.8058 4.8653 57.5499 4.8653C58.3675 4.8653 59.1847 5.10674 60.0023 5.58962L60.2203 5.73449L60.6563 5.97593V5.54133V3.56153V3.36837L60.3293 3.32008C59.2392 3.07864 58.3675 2.93378 57.6044 2.93378C56.0784 2.93378 54.7703 3.41666 53.7893 4.28585C52.7537 5.20332 52.1542 6.60366 52.1542 8.14887C52.1542 9.7424 52.6992 11.0462 53.7348 11.9637C54.7703 12.8811 56.2964 13.364 58.0404 13.364C58.9124 13.364 59.7298 13.2191 60.3838 12.8811H60.4383L60.5473 12.8328L60.6018 12.7362L61.3649 10.4185H60.9834V10.4667Z" fill="#D9EFDE" fill-opacity="0.8"/>
<path id="Vector_8" d="M88.8344 10.4667L88.5073 10.6599C87.8533 11.0462 86.7632 11.4808 85.6731 11.4808C84.8011 11.4808 84.0925 11.2394 83.493 10.7565C82.7844 10.1287 82.4029 9.11466 82.4029 7.95577C82.4029 6.12082 83.602 4.8653 85.3461 4.8653C86.1637 4.8653 86.9812 5.10674 87.7988 5.58962L88.4528 5.97593V3.56153V3.36837L88.1803 3.32008C87.0902 3.07864 86.2182 2.93378 85.4551 2.93378C83.929 2.93378 82.6209 3.41666 81.6398 4.28585C80.6042 5.20332 80.0047 6.60366 80.0047 8.14887C80.0047 9.7424 80.5497 11.0462 81.5853 11.9637C82.6209 12.8811 84.147 13.364 85.8911 13.364C86.7632 13.364 87.5808 13.2191 88.2348 12.8811L88.3983 12.8328L89.2159 10.4185H88.8344V10.4667Z" fill="#D9EFDE" fill-opacity="0.8"/>
<path id="Vector_9" d="M73.7917 3.17513H70.7946H67.1973V3.41657L67.4698 3.51314C67.9059 3.65801 67.8514 4.57548 67.8514 5.15494V11.1909C67.8514 11.6738 67.8514 12.6879 67.4698 12.8328L67.1973 12.9293V13.1708H70.7946V12.9293L70.5221 12.8328C70.086 12.6879 70.1405 11.6738 70.1405 11.1909V9.21114H72.1027C72.1027 9.21114 72.9742 9.16288 73.0832 9.45256L73.1377 9.59746L73.3557 9.64572L73.5192 6.98987H73.2467L73.1922 7.13477C73.1377 7.32793 72.3207 7.42451 72.1027 7.37619H70.086C70.086 6.50703 70.086 5.39638 70.086 4.9135H72.7561C73.3557 4.9135 73.6827 5.05837 73.7917 5.2998L73.8462 5.44467H74.1187L74.7728 3.07855C74.8818 3.07855 74.0097 3.17513 73.7917 3.17513Z" fill="#D9EFDE" fill-opacity="0.8"/>
<path id="Vector_10" d="M120.009 3.17524V3.41668L120.227 3.51326C120.718 3.80299 120.773 4.23758 120.773 5.05848V9.64584C119.246 7.71431 115.868 3.12695 115.868 3.12695H113.252V3.3684L113.47 3.46497C113.96 3.7547 114.015 4.23758 114.015 5.05848V11.0462C114.015 11.8671 114.015 12.4948 113.47 12.7846L113.306 12.8812V13.1226H116.631V12.8812L116.413 12.7846C115.922 12.688 115.922 11.8671 115.922 11.0462V6.70026L119.192 10.8531C119.791 11.6257 120.773 12.7363 121.808 13.026C122.626 13.2675 122.789 13.2192 122.789 13.2192V5.10677C122.789 4.28587 122.789 3.80299 123.334 3.51326L123.552 3.41668V3.17524H120.009Z" fill="#D9EFDE" fill-opacity="0.8"/>
<path id="Vector_11" d="M133.417 4.62389C132.327 3.65812 130.692 3.12695 128.676 3.12695H124.588V3.3684L124.806 3.41668L124.915 3.46497C125.405 3.60983 125.296 4.62389 125.296 5.15506V11.1911C125.296 11.9154 125.296 12.5432 124.697 12.8812L124.533 12.9777V13.1709H128.567C132.272 13.1709 134.889 11.0945 134.889 8.10063C134.889 6.70026 134.398 5.49307 133.417 4.62389ZM131.509 10.6599C130.746 11.2876 129.711 11.6739 128.403 11.6739C128.131 11.6739 127.967 11.6257 127.64 11.5774V4.81704C128.076 4.72046 128.294 4.67217 128.676 4.67217C129.929 4.67217 130.855 4.9619 131.509 5.54136C132.163 6.12084 132.49 7.08657 132.49 8.24547C132.49 9.21126 132.109 10.0804 131.509 10.6599Z" fill="#D9EFDE" fill-opacity="0.8"/>
<path id="Vector_12" d="M111.234 11.3359V5.05847C111.234 4.33415 111.234 3.65811 111.779 3.51325L111.997 3.46496L111.834 3.17523H108.128V3.41667L108.346 3.46496C108.891 3.65811 108.836 4.43072 108.836 4.96189V9.74243C108.836 10.2253 108.836 10.4667 108.564 10.8047C108.128 11.3359 107.31 11.674 106.438 11.674C105.73 11.674 105.239 11.5291 104.858 11.1911C104.367 10.8047 104.149 10.0804 104.149 9.16296V4.9136C104.149 4.33415 104.149 3.56154 104.64 3.41667L104.858 3.36838V3.17523H101.043V3.41667L101.261 3.46496C101.751 3.60983 101.806 4.5273 101.751 5.25162V9.35611C101.751 10.3702 101.751 11.3842 102.678 12.3017C103.441 13.026 104.585 13.4123 105.893 13.4123C106.819 13.4123 107.964 12.9777 108.782 12.3983V13.1709H111.888V12.9294L111.67 12.8811C111.234 12.688 111.18 12.0602 111.234 11.3359Z" fill="#D9EFDE" fill-opacity="0.8"/>
<path id="Vector_13" d="M143.064 10.1287C143.064 10.9013 142.683 11.6739 141.974 12.2534C141.156 12.9777 140.012 13.364 138.758 13.364C137.777 13.364 136.851 13.2191 135.979 12.9294H135.924L135.815 12.8811V12.7846V12.7362L135.379 10.9496L135.325 10.6599L135.27 10.4185H135.543L135.924 10.8047C136.742 11.4808 137.886 11.7705 138.922 11.7705C139.63 11.7705 140.666 11.3359 140.666 10.6116C140.666 9.79066 139.794 9.4044 138.649 8.9215C137.287 8.34203 135.652 7.61771 135.652 5.78277C135.652 3.70638 137.832 2.98206 139.685 2.98206C140.502 2.98206 141.265 3.07863 141.974 3.32007H142.029L142.192 3.36836V3.51322V3.56151V4.81701V5.2516V5.54133L141.811 5.29989L141.429 5.10673C141.102 4.91358 140.284 4.62385 139.576 4.62385C139.303 4.62385 138.704 4.67214 138.322 5.01016C138.159 5.15502 138.05 5.34818 138.05 5.6379C138.05 6.36223 139.031 6.79681 140.066 7.23139C141.374 7.81087 143.064 8.53519 143.064 10.1287Z" fill="#D9EFDE" fill-opacity="0.8"/>
</g>
<defs>
<clipPath id="clip0_301_8774">
<rect width="143" height="13" fill="white" transform="translate(0.357178 0.634827)"/>
</clipPath>
</defs>
</svg>
