<svg width="55" height="21" viewBox="0 0 55 21" fill="none" xmlns="http://www.w3.org/2000/svg">
<g id="logo-ted">
<path id="logo-ted_2" d="M5.83233 5.24015H0.357178L0.357178 0.134827H17.3734V5.24015H11.8971V20.1348H5.83233V5.24015ZM18.315 0.134827H34.8604V5.24015H24.3803V7.70281H34.8604V12.5069H24.3803V15.0295H34.8604V20.1348H18.315V0.134827ZM35.8607 0.134827H45.8114C52.3475 0.134827 54.6429 5.05999 54.6429 10.1052C54.6429 16.2312 51.4628 20.1348 44.6335 20.1348H35.8607V0.134827ZM41.926 15.0295H44.28C48.0482 15.0295 48.5793 11.907 48.5793 10.0453C48.5793 8.78344 48.1671 5.30026 43.8092 5.30026H41.8656L41.926 15.0295Z" fill="#D9EFDE" fill-opacity="0.8"/>
</g>
</svg>
