<svg width="68" height="22" viewBox="0 0 68 22" fill="none" xmlns="http://www.w3.org/2000/svg">
<g id="logo-rakuten" clip-path="url(#clip0_301_8763)">
<path id="Vector" d="M16.9861 21.6348L54.2397 18.234H13.7571L16.9861 21.6348Z" fill="#D9EFDE" fill-opacity="0.8"/>
<path id="Vector_2" d="M62.877 4.20569C62.1128 4.22449 61.3699 4.47544 60.7379 4.92836V4.46075H58.2355V16.0235H60.7379V9.26439C60.7203 8.96827 60.7604 8.67148 60.8559 8.39233C60.9514 8.11318 61.1002 7.8576 61.293 7.64134C61.4859 7.42507 61.7188 7.25271 61.9773 7.1349C62.2359 7.01708 62.5146 6.95629 62.7963 6.95629C63.078 6.95629 63.3568 7.01708 63.6153 7.1349C63.8739 7.25271 64.1067 7.42507 64.2996 7.64134C64.4925 7.8576 64.6412 8.11318 64.7367 8.39233C64.8322 8.67148 64.8724 8.96827 64.8548 9.26439V16.066H67.3572V9.26439C67.3572 6.45872 65.5409 4.20569 62.877 4.20569Z" fill="#D9EFDE" fill-opacity="0.8"/>
<path id="Vector_3" d="M52.4639 4.16321C49.5579 4.16321 47.4995 6.84135 47.4995 10.2422C47.4995 13.813 50.0826 16.3211 52.7061 16.3211C54.038 16.3211 55.6928 15.8535 57.1055 13.728L54.8856 12.3677C53.1904 15.0033 50.3248 13.6855 50.0019 11.0073H57.1862C57.832 6.92636 55.2892 4.16321 52.4639 4.16321ZM50.1633 8.7543C50.688 6.07616 54.1591 5.90612 54.6434 8.7543H50.1633Z" fill="#D9EFDE" fill-opacity="0.8"/>
<path id="Vector_4" d="M41.7843 12.6276C41.7621 13.1575 41.8414 13.6867 42.0176 14.1835C42.1937 14.6804 42.4631 15.1349 42.8097 15.5197C43.1562 15.9045 43.5729 16.2119 44.0347 16.4235C44.4965 16.635 44.994 16.7465 45.4976 16.7511C46.3484 16.7197 47.1793 16.4717 47.9193 16.0284L46.3048 13.7329C46.0569 13.9191 45.7616 14.0228 45.4572 14.0304C45.2909 14.0255 45.1273 13.9845 44.9767 13.91C44.8261 13.8355 44.6917 13.7291 44.5819 13.5975C44.4721 13.4658 44.3892 13.3118 44.3384 13.1449C44.2876 12.978 44.27 12.8019 44.2867 12.6276V7.65391H46.4259V4.89075H44.2867V2.00006H41.7843V4.89075H40.4524V7.65391H41.7843V12.6276Z" fill="#D9EFDE" fill-opacity="0.8"/>
<path id="Vector_5" d="M35.3507 16.3211C36.1149 16.3023 36.8578 16.0513 37.4898 15.5984V16.0235H39.9922V4.46075H37.4898V11.2624C37.5074 11.5585 37.4673 11.8553 37.3718 12.1344C37.2763 12.4136 37.1276 12.6692 36.9347 12.8854C36.7418 13.1017 36.5089 13.2741 36.2504 13.3919C35.9918 13.5097 35.7131 13.5705 35.4314 13.5705C35.1497 13.5705 34.871 13.5097 34.6124 13.3919C34.3539 13.2741 34.121 13.1017 33.9281 12.8854C33.7352 12.6692 33.5865 12.4136 33.491 12.1344C33.3955 11.8553 33.3553 11.5585 33.373 11.2624V4.46075H30.8705V11.2624C30.8705 14.068 32.6868 16.3211 35.3507 16.3211Z" fill="#D9EFDE" fill-opacity="0.8"/>
<path id="Vector_6" d="M23.9686 11.3049L27.6818 16.066H31.1529L26.1884 9.90203L30.4667 4.46074H26.9957L23.9686 8.4992V0.634827H21.4258V16.066H23.9686V11.3049Z" fill="#D9EFDE" fill-opacity="0.8"/>
<path id="Vector_7" d="M17.5108 15.5134V16.0235H20.0132V4.46078H17.5108V4.9709C16.8289 4.45259 16.0108 4.17034 15.1699 4.16321C12.3446 4.16321 10.165 6.88386 10.165 10.2422C10.165 13.6005 12.3042 16.3211 15.1699 16.3211C16.0118 16.3206 16.8318 16.0377 17.5108 15.5134ZM12.7078 10.2847C12.7078 8.45673 13.7168 7.01139 15.1295 7.01139C16.5421 7.01139 17.5108 8.45673 17.5108 10.2847C17.5108 12.1126 16.5421 13.5579 15.1295 13.5579C13.7168 13.5579 12.7078 12.1126 12.7078 10.2847Z" fill="#D9EFDE" fill-opacity="0.8"/>
<path id="Vector_8" d="M9.35778 6.54375C9.35671 5.22499 8.85884 3.96057 7.97347 3.02807C7.0881 2.09557 5.88759 1.57119 4.63549 1.57007H0.357178V16.0235H2.98067V11.5599H4.79694L7.98549 16.0235H11.2548L7.38007 10.6247C7.99841 10.1636 8.50136 9.55137 8.84581 8.8406C9.19026 8.12984 9.36593 7.3417 9.35778 6.54375ZM4.67585 8.8393H2.98067V4.33323H4.67585C5.24319 4.33323 5.78729 4.5706 6.18846 4.99313C6.58963 5.41565 6.81501 5.98872 6.81501 6.58626C6.81501 7.18381 6.58963 7.75687 6.18846 8.1794C5.78729 8.60193 5.24319 8.8393 4.67585 8.8393Z" fill="#D9EFDE" fill-opacity="0.8"/>
</g>
<defs>
<clipPath id="clip0_301_8763">
<rect width="67" height="21" fill="white" transform="translate(0.357178 0.634827)"/>
</clipPath>
</defs>
</svg>
