<svg width="24" height="25" viewBox="0 0 24 25" fill="none" xmlns="http://www.w3.org/2000/svg">
<g id="Icon / Twitter">
<path id="Vector" d="M20.9728 7.48693C20.5084 8.10645 19.947 8.64686 19.3103 9.08729C19.3103 9.24912 19.3103 9.41095 19.3103 9.58178C19.3154 12.5206 18.1415 15.3386 16.0518 17.404C13.962 19.4694 11.1312 20.6094 8.19405 20.5684C6.49599 20.5741 4.81967 20.1864 3.29642 19.4356C3.21428 19.3997 3.16131 19.3185 3.16162 19.2288V19.1299C3.16162 19.0008 3.26623 18.8962 3.39527 18.8962C5.06442 18.8411 6.67402 18.2624 7.99634 17.2419C6.48553 17.2114 5.12619 16.3164 4.5006 14.9402C4.46901 14.8651 4.47884 14.7788 4.52657 14.7127C4.57429 14.6466 4.653 14.6102 4.73425 14.6166C5.19342 14.6627 5.65718 14.62 6.1002 14.4907C4.43239 14.1445 3.17921 12.7599 2.99986 11.0652C2.99349 10.9839 3.02992 10.9052 3.096 10.8574C3.16207 10.8097 3.24824 10.7998 3.32338 10.8315C3.77094 11.029 4.25409 11.133 4.74324 11.1371C3.28184 10.178 2.65061 8.35358 3.20655 6.69575C3.26394 6.53466 3.40181 6.41565 3.5695 6.38247C3.73718 6.34928 3.90996 6.40681 4.02432 6.53392C5.99639 8.63278 8.70604 9.88349 11.5819 10.0223C11.5083 9.72838 11.4721 9.42629 11.4741 9.12325C11.501 7.53425 12.4842 6.11874 13.9634 5.5394C15.4425 4.96007 17.1249 5.33156 18.223 6.47997C18.9714 6.33738 19.695 6.08598 20.3707 5.73374C20.4202 5.70284 20.483 5.70284 20.5325 5.73374C20.5634 5.78326 20.5634 5.84605 20.5325 5.89557C20.2052 6.64505 19.6523 7.27365 18.9509 7.69372C19.5651 7.62249 20.1685 7.4776 20.7482 7.26217C20.797 7.22895 20.8611 7.22895 20.9099 7.26217C20.9508 7.28087 20.9814 7.31664 20.9935 7.35995C21.0056 7.40326 20.998 7.44971 20.9728 7.48693Z" fill="#D9EFDE"/>
</g>
</svg>
